<svg width="50" height="50" viewBox="0 0 50 50" fill="none" xmlns="http://www.w3.org/2000/svg">
<path d="M9.52381 7.14286H7.14286V9.52381H4.7619V11.9048H2.38095V16.6667H0V33.3333H2.38095V38.0952H4.7619V40.4762H7.14286V42.8571H9.52381V45.2381H11.9048V47.619H16.6667V50H33.3333V47.619H38.0952V45.2381H40.4762V42.8571H42.8571V40.4762H45.2381V35.7143H47.619V33.3333H50V16.6667H47.619V14.2857H45.2381V9.52381H42.8571V7.14286H40.4762V4.7619H38.0952V2.38095H33.3333V0H16.6667V2.38095H11.9048V4.7619H9.52381V7.14286Z" fill="black"/>
<path d="M30.9524 32.1429V17.8572H33.3333V20.2381H35.7143V22.6191H38.0952V20.2381H40.4762V17.8572H42.8572V32.1429H40.4762V22.6191H38.0952V27.381H35.7143V22.6191H33.3333V32.1429H30.9524Z" fill="white"/>
<path fill-rule="evenodd" clip-rule="evenodd" d="M19.0476 17.8572V32.1429H21.4286V27.381H26.1905V25H28.5714V20.2381H26.1905V17.8572H19.0476ZM26.1905 20.2381V25H21.4286V20.2381H26.1905Z" fill="white"/>
<path d="M7.14282 17.8572H14.2857V20.2381H9.52377V29.7619H14.2857V32.1429H7.14282V17.8572Z" fill="white"/>
<path d="M14.2857 29.7619V20.2381H16.6666V29.7619H14.2857Z" fill="white"/>
</svg>
