<svg width="50" height="50" viewBox="0 0 50 50" fill="none" xmlns="http://www.w3.org/2000/svg">
<circle cx="25" cy="25" r="25" fill="black"/>
<path d="M30.8096 32.2857V18H33.1905V20.381H35.5715V22.7619H37.9524V20.381H40.3334V18H42.7143V32.2857H40.3334V22.7619H37.9524V27.5238H35.5715V22.7619H33.1905V32.2857H30.8096Z" fill="white"/>
<path fill-rule="evenodd" clip-rule="evenodd" d="M18.9048 18V32.2857H21.2857V27.5238H26.0476V25.1429H28.4286V20.381H26.0476V18H18.9048ZM26.0476 20.381V25.1429H21.2857V20.381H26.0476Z" fill="white"/>
<path d="M7 18H14.1429V20.381H9.38095V29.9048H14.1429V32.2857H7V18Z" fill="white"/>
<path d="M14.1429 29.9048V20.381H16.5238V29.9048H14.1429Z" fill="white"/>
</svg>
